#N canvas 0 72 2560 657 10;
#X obj 23 140 bng 15 250 50 0 empty empty empty 17 7 0 10 -262144 -1
-1;
#X msg 23 171 1 10 \, 0 1000 10;
#X obj 23 213 vline~;
#X obj 23 249 *~;
#X obj 23 296 dac~;
#X floatatom 162 116 5 0 0 0 - - -, f 5;
#X obj 162 150 mtof;
#X obj 162 184 osc~ 220;
#X obj 162 81 r myvalue;
#X msg 277 101;
#X floatatom 277 123 5 0 0 0 - - -, f 5;
#X connect 0 0 1 0;
#X connect 1 0 2 0;
#X connect 2 0 3 0;
#X connect 3 0 4 0;
#X connect 3 0 4 1;
#X connect 5 0 6 0;
#X connect 5 0 0 0;
#X connect 6 0 7 0;
#X connect 7 0 3 1;
#X connect 8 0 5 0;
#X connect 9 0 10 0;
