#N canvas 921 694 1226 668 10;
#X obj 23 140 bng 15 250 50 0 empty empty empty 17 7 0 10 -262144 -1
-1;
#X msg 23 171 1 10 \, 0 1000 10;
#X obj 23 213 vline~;
#X obj 23 249 *~;
#X obj 23 296 dac~;
#X floatatom 162 116 5 0 0 0 - - -, f 5;
#X obj 162 150 mtof;
#X obj 162 184 osc~ 220;
#X obj 326 66 loadbang;
#X obj 326 110 metro 500;
#X obj 326 163 bng 15 250 50 0 empty empty empty 17 7 0 10 -262144
-1 -1;
#X msg 356 208 12;
#X obj 496 107 print hello;
#X obj 246 256 send mybang;
#X obj 356 241 send myfloat 20;
#X text 252 14 #sending a bang and a float;
#X text 20 15 #cheapo synth that plays a note when receives a float
"myvalue";
#X obj 162 81 r myvalue;
#X obj 496 66 loadbang;
#X text 492 14 #print a text;
#X connect 0 0 1 0;
#X connect 1 0 2 0;
#X connect 2 0 3 0;
#X connect 3 0 4 0;
#X connect 3 0 4 1;
#X connect 5 0 6 0;
#X connect 5 0 0 0;
#X connect 6 0 7 0;
#X connect 7 0 3 1;
#X connect 8 0 9 0;
#X connect 9 0 10 0;
#X connect 10 0 11 0;
#X connect 10 0 13 0;
#X connect 11 0 14 0;
#X connect 17 0 5 0;
#X connect 18 0 12 0;
