#N canvas 390 56 857 493 10;
#X obj 88 175 bng 15 250 50 0 empty empty empty 17 7 0 10 -262144 -1
-1;
#X msg 88 206 1 10 \, 0 1000 10;
#X obj 88 248 vline~;
#X obj 88 284 *~;
#X obj 88 331 dac~;
#X floatatom 227 151 5 0 0 0 - - -, f 5;
#X obj 227 185 mtof;
#X obj 386 160 fiddle~ 4096;
#X obj 386 193 0;
#X obj 386 226 s pitch;
#X obj 330 244 print;
#X obj 227 116 r value;
#X obj 186 318 bng 15 250 50 0 empty empty empty 0 -6 0 8 -262144 -1
-1;
#X obj 186 342 tabwrite~ output;
#N canvas 0 22 450 278 (subpatch) 0;
#X array output 100 float 5;
#A 0 0 0 0 0 0 0 0 0 0 0 0 0 0 0 0 0 0 0 0 0 0 0 0 0 0 0 0 0 0 0 0
0 0 0 0 0 0 0 0 0 0 0 0 0 0 0 0 0 0 0 0 0 0 0 0 0 0 0 0 0 0 0 0 0 0
0 0 0 0 0 0 0 0 0 0 0 0 0 0 0 0 0 0 0 0 0 0 0 0 0 0 0 0 0 0 0 0 0 0
0;
#X coords 0 1 99 -1 200 140 1;
#X restore 531 141 graph;
#X obj 222 248 bng 15 250 50 0 empty empty empty 17 7 0 10 -262144
-1 -1;
#X obj 202 272 metro 10;
#X obj 227 219 osc~ 220;
#X obj 260 244 loadbang;
#X obj 386 128 adc~;
#X connect 0 0 1 0;
#X connect 1 0 2 0;
#X connect 2 0 3 0;
#X connect 3 0 4 0;
#X connect 3 0 4 1;
#X connect 3 0 13 0;
#X connect 5 0 6 0;
#X connect 5 0 0 0;
#X connect 6 0 17 0;
#X connect 7 0 8 0;
#X connect 8 0 9 0;
#X connect 8 0 10 0;
#X connect 11 0 5 0;
#X connect 12 0 13 0;
#X connect 15 0 16 0;
#X connect 16 0 12 0;
#X connect 17 0 3 1;
#X connect 18 0 16 0;
#X connect 19 0 7 0;
